<?xml version="1.0" encoding="UTF-8"?>
<svg xmlns="http://www.w3.org/2000/svg" xmlns:xlink="http://www.w3.org/1999/xlink" width="20px" height="20px" viewBox="0 0 20 20" version="1.1">
<g id="surface1">
<path style=" stroke:none;fill-rule:nonzero;fill:rgb(0%,0%,0%);fill-opacity:1;" d="M 19.15625 7.46875 L 17.59375 7.46875 C 17.46875 7.132812 17.339844 6.792969 17.175781 6.5 L 18.273438 5.398438 C 18.613281 5.066406 18.613281 4.558594 18.273438 4.21875 L 15.824219 1.769531 C 15.488281 1.429688 14.980469 1.429688 14.644531 1.769531 L 13.503906 2.910156 C 13.210938 2.78125 12.871094 2.65625 12.578125 2.53125 L 12.578125 0.925781 C 12.578125 0.460938 12.195312 0.078125 11.730469 0.078125 L 8.269531 0.078125 C 7.804688 0.078125 7.421875 0.460938 7.421875 0.925781 L 7.421875 2.441406 C 7.089844 2.566406 6.789062 2.691406 6.496094 2.820312 L 5.355469 1.679688 C 5.023438 1.339844 4.515625 1.339844 4.175781 1.679688 L 1.726562 4.128906 C 1.386719 4.464844 1.386719 4.972656 1.726562 5.308594 L 2.824219 6.410156 C 2.660156 6.746094 2.53125 7.042969 2.40625 7.378906 L 0.84375 7.378906 C 0.378906 7.378906 0 7.761719 0 8.226562 L 0 11.6875 C 0 12.152344 0.378906 12.535156 0.84375 12.535156 L 2.277344 12.535156 C 2.40625 12.871094 2.53125 13.207031 2.699219 13.546875 L 1.644531 14.601562 C 1.476562 14.765625 1.171875 15.265625 1.644531 15.78125 L 4.09375 18.230469 C 4.429688 18.570312 4.9375 18.570312 5.277344 18.230469 L 6.289062 17.21875 C 6.625 17.429688 6.960938 17.554688 7.339844 17.683594 L 7.339844 19.074219 C 7.339844 19.539062 7.722656 19.921875 8.1875 19.921875 L 11.648438 19.921875 C 12.113281 19.921875 12.496094 19.539062 12.453125 19.164062 L 12.453125 17.773438 C 12.789062 17.644531 13.167969 17.472656 13.507812 17.308594 L 14.519531 18.320312 C 14.855469 18.660156 15.363281 18.660156 15.699219 18.320312 L 18.148438 15.871094 C 18.488281 15.535156 18.488281 15.027344 18.148438 14.691406 L 17.097656 13.636719 C 17.265625 13.296875 17.390625 12.960938 17.515625 12.625 L 19.15625 12.625 C 19.621094 12.625 20 12.242188 20 11.777344 L 20 8.316406 C 20 7.851562 19.621094 7.46875 19.15625 7.46875 Z M 18.195312 10.890625 L 16.929688 10.890625 C 16.550781 10.890625 16.214844 11.144531 16.128906 11.523438 C 15.957031 12.15625 15.75 12.75 15.410156 13.296875 C 15.199219 13.636719 15.285156 14.058594 15.535156 14.308594 L 16.421875 15.195312 L 15.15625 16.460938 L 14.3125 15.617188 C 14.058594 15.324219 13.636719 15.277344 13.300781 15.488281 C 12.707031 15.828125 12.113281 16.082031 11.480469 16.25 C 11.101562 16.332031 10.847656 16.671875 10.847656 17.050781 L 10.847656 18.273438 L 9.03125 18.273438 L 9.03125 18.269531 L 8.992188 18.269531 L 8.992188 17.046875 C 8.992188 16.664062 8.738281 16.332031 8.359375 16.246094 C 7.722656 16.078125 7.089844 15.824219 6.542969 15.484375 C 6.203125 15.273438 5.78125 15.359375 5.527344 15.613281 L 4.683594 16.457031 L 3.417969 15.191406 L 4.304688 14.304688 C 4.558594 14.011719 4.644531 13.632812 4.429688 13.292969 C 4.089844 12.746094 3.839844 12.152344 3.710938 11.519531 C 3.628906 11.140625 3.292969 10.886719 2.910156 10.886719 L 1.644531 10.886719 L 1.644531 9.070312 L 2.996094 9.070312 C 3.375 9.070312 3.710938 8.816406 3.796875 8.4375 C 3.925781 7.847656 4.175781 7.292969 4.515625 6.746094 C 4.726562 6.410156 4.644531 5.988281 4.390625 5.734375 L 3.417969 4.761719 L 4.683594 3.496094 L 5.65625 4.46875 C 5.949219 4.722656 6.328125 4.808594 6.667969 4.597656 C 7.21875 4.300781 7.765625 4.046875 8.359375 3.921875 C 8.738281 3.839844 8.992188 3.5 8.992188 3.121094 L 8.992188 1.730469 L 10.808594 1.730469 L 10.808594 3.167969 C 10.808594 3.546875 11.0625 3.882812 11.441406 3.96875 C 12.035156 4.09375 12.625 4.347656 13.132812 4.640625 C 13.472656 4.851562 13.890625 4.765625 14.144531 4.515625 L 15.15625 3.5 L 16.421875 4.765625 L 15.453125 5.738281 C 15.15625 5.992188 15.113281 6.414062 15.324219 6.75 C 15.621094 7.261719 15.875 7.851562 16.042969 8.441406 C 16.125 8.820312 16.464844 9.074219 16.84375 9.074219 L 18.195312 9.074219 Z M 18.195312 10.890625 "/>
<path style=" stroke:none;fill-rule:nonzero;fill:rgb(0%,0%,0%);fill-opacity:1;" d="M 9.917969 5.398438 C 7.386719 5.398438 5.316406 7.46875 5.316406 10.003906 C 5.316406 12.535156 7.386719 14.605469 9.917969 14.605469 C 12.453125 14.605469 14.519531 12.535156 14.519531 10.003906 C 14.519531 7.46875 12.449219 5.398438 9.917969 5.398438 Z M 9.917969 12.957031 C 8.3125 12.957031 6.960938 11.648438 6.960938 10.003906 C 6.960938 8.398438 8.273438 7.046875 9.917969 7.046875 C 11.5625 7.046875 12.875 8.355469 12.875 10.003906 C 12.875 11.605469 11.523438 12.957031 9.917969 12.957031 Z M 9.917969 12.957031 "/>
</g>
</svg>
